<svg width="25" height="24" viewBox="0 0 25 24" fill="none" xmlns="http://www.w3.org/2000/svg">
<path d="M13.6875 17.6519C13.5454 17.7939 13.3716 17.8843 13.189 17.9229C12.8687 17.9907 12.5215 17.9004 12.2729 17.6519L8.71973 14.0986C8.63281 13.8506 8.63672 13.5781 8.73242 13.3325C8.78613 13.1953 8.86865 13.0664 8.97998 12.9556C9.29834 12.6367 9.76367 12.5547 10.1582 12.7085L11.98 14.5308V7.05518C11.98 6.50293 12.4277 6.05518 12.98 6.05518C13.5327 6.05518 13.98 6.50293 13.98 7.05518V14.5308L15.8018 12.7095C16.0674 12.6055 16.3652 12.6084 16.6289 12.7188C16.7568 12.7725 16.877 12.8516 16.981 12.9556C17.1313 13.106 17.229 13.2891 17.2739 13.4819C17.3218 13.6851 17.311 13.8994 17.2417 14.0977L13.6875 17.6519Z" fill="white"/>
<path fill-rule="evenodd" clip-rule="evenodd" d="M23.9805 12C23.9805 18.0752 19.0557 23 12.9805 23C6.90527 23 1.98047 18.0752 1.98047 12C1.98047 5.9248 6.90527 1 12.9805 1C19.0557 1 23.9805 5.9248 23.9805 12ZM21.9805 12C21.9805 16.9707 17.9512 21 12.9805 21C8.00977 21 3.98047 16.9707 3.98047 12C3.98047 7.0293 8.00977 3 12.9805 3C17.9512 3 21.9805 7.0293 21.9805 12Z" fill="white"/>
</svg>
