<svg width="25" height="24" viewBox="0 0 25 24" fill="none" xmlns="http://www.w3.org/2000/svg">
<path d="M6.01953 12C6.01953 12.8286 5.34814 13.5 4.51953 13.5C3.69092 13.5 3.01953 12.8286 3.01953 12C3.01953 11.1714 3.69092 10.5 4.51953 10.5C4.94727 10.5 5.33301 10.6787 5.60645 10.9658C5.8623 11.2349 6.01953 11.5991 6.01953 12Z" fill="white"/>
<path d="M13.5195 12C13.5195 12.8286 12.8481 13.5 12.0195 13.5C11.1909 13.5 10.5195 12.8286 10.5195 12C10.5195 11.1714 11.1909 10.5 12.0195 10.5C12.8481 10.5 13.5195 11.1714 13.5195 12Z" fill="white"/>
<path d="M19.5195 13.5C20.3481 13.5 21.0195 12.8286 21.0195 12C21.0195 11.1714 20.3481 10.5 19.5195 10.5C18.6909 10.5 18.0195 11.1714 18.0195 12C18.0195 12.8286 18.6909 13.5 19.5195 13.5Z" fill="white"/>
</svg>
